<svg width="32" height="32" viewBox="0 0 32 32" fill="none" xmlns="http://www.w3.org/2000/svg">
<path d="M19 16C19 17.6569 17.6569 19 16 19C14.3431 19 13 17.6569 13 16C13 14.3431 14.3431 13 16 13C17.6569 13 19 14.3431 19 16Z" fill="#FAE972"/>
<path fill-rule="evenodd" clip-rule="evenodd" d="M16 11C13.2386 11 11 13.2386 11 16C11 18.7614 13.2386 21 16 21C18.7614 21 21 18.7614 21 16C21 13.2386 18.7614 11 16 11ZM9 16C9 12.134 12.134 9 16 9C19.866 9 23 12.134 23 16C23 19.866 19.866 23 16 23C12.134 23 9 19.866 9 16Z" fill="#A7DF7F"/>
<path fill-rule="evenodd" clip-rule="evenodd" d="M16 7C11.0294 7 7 11.0294 7 16C7 20.9706 11.0294 25 16 25C20.9706 25 25 20.9706 25 16C25 11.0294 20.9706 7 16 7ZM5 16C5 9.92487 9.92487 5 16 5C22.0751 5 27 9.92487 27 16C27 22.0751 22.0751 27 16 27C9.92487 27 5 22.0751 5 16Z" fill="#53D68C"/>
<path fill-rule="evenodd" clip-rule="evenodd" d="M12.6616 1.37307C13.7361 1.12878 14.8536 1 16 1C17.1464 1 18.2639 1.12878 19.3384 1.37307C19.8769 1.4955 20.2143 2.03133 20.0918 2.56988C19.9694 3.10842 19.4336 3.44574 18.895 3.3233C17.965 3.11186 16.9962 3 16 3C15.0038 3 14.035 3.11186 13.105 3.3233C12.5664 3.44574 12.0306 3.10842 11.9082 2.56988C11.7857 2.03133 12.1231 1.4955 12.6616 1.37307ZM9.3969 3.61141C9.69117 4.07877 9.55086 4.69619 9.0835 4.99047C7.43191 6.03039 6.03039 7.43191 4.99047 9.0835C4.69619 9.55086 4.07877 9.69117 3.61141 9.3969C3.14406 9.10263 3.00375 8.48521 3.29802 8.01785C4.49736 6.11308 6.11308 4.49736 8.01785 3.29802C8.48521 3.00375 9.10263 3.14406 9.3969 3.61141ZM22.6031 3.61141C22.8974 3.14406 23.5148 3.00375 23.9822 3.29802C25.8869 4.49736 27.5026 6.11308 28.702 8.01785C28.9963 8.48521 28.8559 9.10263 28.3886 9.3969C27.9212 9.69117 27.3038 9.55086 27.0095 9.0835C25.9696 7.43191 24.5681 6.03039 22.9165 4.99047C22.4491 4.69619 22.3088 4.07877 22.6031 3.61141ZM2.56988 11.9082C3.10842 12.0306 3.44574 12.5664 3.3233 13.105C3.11186 14.035 3 15.0038 3 16C3 16.9962 3.11186 17.965 3.3233 18.895C3.44574 19.4336 3.10842 19.9694 2.56988 20.0918C2.03133 20.2143 1.4955 19.8769 1.37307 19.3384C1.12878 18.2639 1 17.1464 1 16C1 14.8536 1.12878 13.7361 1.37307 12.6616C1.4955 12.1231 2.03133 11.7857 2.56988 11.9082ZM29.4301 11.9082C29.9687 11.7857 30.5045 12.1231 30.6269 12.6616C30.8712 13.7361 31 14.8536 31 16C31 17.1464 30.8712 18.2639 30.6269 19.3384C30.5045 19.8769 29.9687 20.2143 29.4301 20.0918C28.8916 19.9694 28.5543 19.4336 28.6767 18.895C28.8881 17.965 29 16.9962 29 16C29 15.0038 28.8881 14.035 28.6767 13.105C28.5543 12.5664 28.8916 12.0306 29.4301 11.9082ZM3.61141 22.6031C4.07877 22.3088 4.69619 22.4491 4.99047 22.9165C6.03039 24.5681 7.43191 25.9696 9.0835 27.0095C9.55086 27.3038 9.69117 27.9212 9.3969 28.3886C9.10263 28.8559 8.48521 28.9963 8.01785 28.702C6.11308 27.5026 4.49736 25.8869 3.29802 23.9821C3.00375 23.5148 3.14406 22.8974 3.61141 22.6031ZM28.3886 22.6031C28.8559 22.8974 28.9963 23.5148 28.702 23.9822C27.5026 25.8869 25.8869 27.5026 23.9821 28.702C23.5148 28.9963 22.8974 28.8559 22.6031 28.3886C22.3088 27.9212 22.4491 27.3038 22.9165 27.0095C24.5681 25.9696 25.9696 24.5681 27.0095 22.9165C27.3038 22.4491 27.9212 22.3088 28.3886 22.6031ZM11.9082 29.4301C12.0306 28.8916 12.5664 28.5543 13.105 28.6767C14.035 28.8881 15.0038 29 16 29C16.9962 29 17.965 28.8881 18.895 28.6767C19.4336 28.5543 19.9694 28.8916 20.0918 29.4301C20.2143 29.9687 19.8769 30.5045 19.3384 30.6269C18.2639 30.8712 17.1464 31 16 31C14.8536 31 13.7361 30.8712 12.6616 30.6269C12.1231 30.5045 11.7857 29.9687 11.9082 29.4301Z" fill="#00CC99"/>
</svg>
